# xmcd
#
# Track frame offsets:
#	150
#	19386
#	34371
#	49674
#	63424
#	75368
#	94602
#	111132
#	126338
#	144780
#	159650
#
# Disc length: 2335 seconds
# Revision: 0
# Processed by: cddbd v1.5.2PL0 Copyright (c) Steve Scherf et al.
# Submitted via: dBpowerAMP V12.0
#
DISCID=8b091d0b
DTITLE=The Mustangs - Cut Loose
DYEAR=2010
DGENRE=
TTITLE0=Canada Eyes
TTITLE1=Sit With Me A While
TTITLE2=I'll Meet You Anytime
TTITLE3=Honey Rock
TTITLE4=More Or Less
TTITLE5=Dream The Day Away
TTITLE6=She Wants More
TTITLE7=Thunder In The Air
TTITLE8=Living With A Broken Heart
TTITLE9=No Good For The Soul 
TTITLE10=Precious Time
EXTD=
EXTT0=
EXTT1=
EXTT2=
EXTT3=
EXTT4=
EXTT5=
EXTT6=
EXTT7=
EXTT8=
EXTT9=
EXTT10=
PLAYORDER=
